<svg width="25" height="27" viewBox="0 0 25 27" fill="none" xmlns="http://www.w3.org/2000/svg">
<path d="M2.10426 9.65C2.1294 9.33676 2.27161 9.04447 2.50256 8.83136C2.73351 8.61824 3.03626 8.49994 3.35051 8.5H20.7305C21.0448 8.49994 21.3475 8.61824 21.5785 8.83136C21.8094 9.04447 21.9516 9.33676 21.9768 9.65L23.073 23.3C23.1006 23.644 23.0567 23.99 22.9441 24.3162C22.8314 24.6424 22.6524 24.9417 22.4184 25.1953C22.1844 25.4489 21.9004 25.6514 21.5843 25.7899C21.2682 25.9284 20.9269 25.9999 20.5818 26H3.49926C3.15417 25.9999 2.81283 25.9284 2.49674 25.7899C2.18065 25.6514 1.89665 25.4489 1.66263 25.1953C1.42861 24.9417 1.24964 24.6424 1.13698 24.3162C1.02431 23.99 0.980405 23.644 1.00801 23.3L2.10301 9.65H2.10426Z" stroke="black" stroke-width="2" stroke-linecap="round" stroke-linejoin="round"/>
<path d="M17.0405 12.25V6C17.0405 4.67392 16.5137 3.40215 15.5761 2.46447C14.6384 1.52678 13.3666 1 12.0405 1C10.7144 1 9.44268 1.52678 8.50499 2.46447C7.56731 3.40215 7.04053 4.67392 7.04053 6V12.25" stroke="black" stroke-width="2" stroke-linecap="round" stroke-linejoin="round"/>
</svg>
