<svg width="33" height="22" viewBox="0 0 33 22" fill="none" xmlns="http://www.w3.org/2000/svg">
<path d="M32.2933 3.4518C32.1066 2.78566 31.7428 2.18256 31.2407 1.70663C30.7244 1.21607 30.0916 0.865156 29.4021 0.687017C26.8215 0.00681409 16.4824 0.00681424 16.4824 0.00681424C12.1721 -0.0422254 7.86293 0.173463 3.57913 0.652663C2.88957 0.843963 2.25797 1.20272 1.74052 1.69702C1.23208 2.18621 0.863813 2.78946 0.671432 3.45043C0.209297 5.94003 -0.0152404 8.46791 0.000848101 11C-0.0156417 13.5298 0.208344 16.0569 0.671432 18.5496C0.85969 19.2078 1.22659 19.8083 1.7364 20.2934C2.2462 20.7784 2.88106 21.1288 3.57913 21.3143C6.19413 21.9932 16.4824 21.9932 16.4824 21.9932C20.7981 22.0423 25.1128 21.8266 29.4021 21.3473C30.0916 21.1692 30.7244 20.8183 31.2407 20.3277C31.7491 19.8426 32.1105 19.2394 32.2919 18.5825C32.7661 16.0939 32.9967 13.565 32.9804 11.0316C33.016 8.48751 32.7858 5.94665 32.2933 3.45043V3.4518ZM13.1954 15.7051V6.29629L21.7976 11.0014L13.1954 15.7051Z" fill="black"/>
</svg>
