<svg width="150" height="113" viewBox="0 0 150 113" fill="none" xmlns="http://www.w3.org/2000/svg">
<path d="M27.9559 48.7575C28.7975 48.7575 29.2184 49.7495 29.2184 51.7335C29.2184 54.7395 27.7154 57.5651 24.7094 60.2104C21.7635 62.7956 18.3667 64.0882 14.519 64.0882C12.054 64.0882 9.6793 63.487 7.39473 62.2846C2.52499 59.6393 0.0901184 55.0401 0.0901184 48.487C0.0901184 43.8577 1.35264 39.3186 3.87769 34.8697C7.36467 28.7976 12.3546 23.988 18.8476 20.4409C25.4007 16.8938 31.7735 15.1202 37.9659 15.1202C42.4749 15.1202 46.1723 16.1122 49.0581 18.0962C52.3045 20.3206 53.9278 23.6273 53.9278 28.016C53.9278 33.6072 51.2224 42.3848 45.8116 54.3487C40.4007 66.2525 37.6953 72.986 37.6953 74.5491C37.6953 75.0301 37.8456 75.1804 38.1462 75C39.7094 73.978 46.8637 65.8317 59.6092 50.5611C72.4148 35.2305 81.3126 25.7615 86.3026 22.1543C90.7514 18.8477 94.4488 16.3828 97.3947 14.7595C100.401 13.0762 103.467 12.2345 106.593 12.2345C107.435 12.2345 108.066 12.2645 108.487 12.3247C110.11 12.4449 110.922 13.2866 110.922 14.8497C110.922 15.6313 110.651 16.022 110.11 16.022C110.05 16.022 109.629 15.9018 108.848 15.6613C108.066 15.3607 107.405 15.2104 106.864 15.2104C98.4468 15.2104 87.1142 22.8156 72.8657 38.0261C67.515 43.7375 60.9919 51.4329 53.2965 61.1122C45.6613 70.7916 41.1522 76.022 39.7695 76.8036C34.8997 79.5691 32.1643 80.9519 31.5631 80.9519C31.3827 80.9519 31.2925 80.6513 31.2925 80.0501C31.2925 78.0661 32.9759 73.016 36.3426 64.8998C37.7254 61.7735 39.7394 57.0842 42.3847 50.8317L46.533 38.6573C47.9759 34.5691 48.6973 31.5932 48.6973 29.7295C48.6973 25.5812 47.4949 22.4249 45.0901 20.2605C42.6853 18.0962 39.2284 17.014 34.7194 17.014C30.2104 17.014 25.3707 18.6072 20.2003 21.7936C14.6092 25.4008 10.4308 29.8497 7.66527 35.1403C4.89974 40.4309 3.51697 44.9098 3.51697 48.5772C3.51697 52.2445 4.26848 55.1303 5.77148 57.2345C8.23641 60.6613 11.513 62.3748 15.6011 62.3748C18.7274 62.3748 21.4929 61.3527 23.8977 59.3086C26.3025 57.2044 27.5049 54.5591 27.5049 51.3727C27.5049 50.7114 27.4148 50.1102 27.2344 49.5691C27.1142 49.0281 27.3546 48.7575 27.9559 48.7575Z" fill="white"/>
<path d="M86.3207 49.4188C86.3207 49.8358 86.2967 50.2765 86.2486 50.7415H75.7155C75.7958 52.0401 76.2364 53.0582 77.0382 53.7956C77.8558 54.517 78.8418 54.8778 79.9961 54.8778C80.9421 54.8778 81.7275 54.6613 82.3528 54.2285C82.994 53.7797 83.4431 53.1863 83.6995 52.4489H86.0562C85.7036 53.7153 84.9981 54.7494 83.94 55.5511C82.8818 56.3366 81.5673 56.7295 79.9961 56.7295C78.7456 56.7295 77.6234 56.449 76.6293 55.8878C75.6515 55.3266 74.8819 54.533 74.3207 53.507C73.7595 52.4648 73.479 51.2624 73.479 49.8998C73.479 48.5372 73.7517 47.3426 74.2967 46.3166C74.8417 45.2907 75.6034 44.5049 76.5812 43.9599C77.5753 43.3987 78.7134 43.1182 79.9961 43.1182C81.2466 43.1182 82.3528 43.3909 83.3147 43.9359C84.2766 44.4809 85.014 45.2345 85.5271 46.1964C86.0562 47.1424 86.3207 48.2164 86.3207 49.4188ZM84.0602 48.9619C84.0602 48.1284 83.8759 47.4147 83.5071 46.8216C83.1382 46.2123 82.6332 45.7554 81.9921 45.4509C81.3668 45.1302 80.6694 44.9699 79.8999 44.9699C78.7937 44.9699 77.8477 45.3225 77.0622 46.0281C76.2927 46.7336 75.8517 47.7114 75.7396 48.9619H84.0602ZM91.3976 45.475C91.7823 44.7213 92.3276 44.1364 93.0328 43.7194C93.7543 43.3025 94.6281 43.0942 95.6541 43.0942V45.3547H95.0769C92.624 45.3547 91.3976 46.6855 91.3976 49.3467V56.513H89.2092V43.3347H91.3976V45.475ZM97.3627 49.8758C97.3627 48.5291 97.6353 47.3507 98.1803 46.3407C98.7253 45.3147 99.4708 44.5211 100.417 43.9599C101.379 43.3987 102.453 43.1182 103.639 43.1182C104.665 43.1182 105.619 43.3587 106.501 43.8397C107.383 44.3047 108.056 44.9218 108.521 45.6914V38.7174H110.733V56.513H108.521V54.0361C108.088 54.8215 107.447 55.4708 106.597 55.984C105.747 56.4809 104.754 56.7295 103.615 56.7295C102.445 56.7295 101.379 56.4409 100.417 55.8637C99.4708 55.2866 98.7253 54.4771 98.1803 53.4349C97.6353 52.3927 97.3627 51.2065 97.3627 49.8758ZM108.521 49.8998C108.521 48.9057 108.321 48.04 107.92 47.3026C107.519 46.5652 106.974 46.004 106.285 45.6192C105.611 45.2185 104.866 45.018 104.048 45.018C103.23 45.018 102.485 45.2104 101.812 45.5952C101.138 45.98 100.601 46.5412 100.2 47.2786C99.7997 48.0159 99.5992 48.8817 99.5992 49.8758C99.5992 50.8858 99.7997 51.7674 100.2 52.521C100.601 53.2584 101.138 53.8278 101.812 54.2285C102.485 54.6132 103.23 54.8056 104.048 54.8056C104.866 54.8056 105.611 54.6132 106.285 54.2285C106.974 53.8278 107.519 53.2584 107.92 52.521C108.321 51.7674 108.521 50.8939 108.521 49.8998ZM126.456 49.4188C126.456 49.8358 126.432 50.2765 126.384 50.7415H115.851C115.931 52.0401 116.372 53.0582 117.173 53.7956C117.991 54.517 118.977 54.8778 120.131 54.8778C121.077 54.8778 121.863 54.6613 122.488 54.2285C123.129 53.7797 123.578 53.1863 123.835 52.4489H126.191C125.838 53.7153 125.133 54.7494 124.075 55.5511C123.017 56.3366 121.702 56.7295 120.131 56.7295C118.881 56.7295 117.758 56.449 116.764 55.8878C115.786 55.3266 115.017 54.533 114.456 53.507C113.895 52.4648 113.614 51.2624 113.614 49.8998C113.614 48.5372 113.886 47.3426 114.432 46.3166C114.977 45.2907 115.738 44.5049 116.716 43.9599C117.71 43.3987 118.848 43.1182 120.131 43.1182C121.382 43.1182 122.488 43.3909 123.45 43.9359C124.412 44.4809 125.149 45.2345 125.662 46.1964C126.191 47.1424 126.456 48.2164 126.456 49.4188ZM124.195 48.9619C124.195 48.1284 124.011 47.4147 123.642 46.8216C123.273 46.2123 122.768 45.7554 122.127 45.4509C121.502 45.1302 120.804 44.9699 120.035 44.9699C118.929 44.9699 117.983 45.3225 117.197 46.0281C116.428 46.7336 115.987 47.7114 115.875 48.9619H124.195Z" fill="white"/>
<path d="M60.6975 67.6473C60.2805 67.6473 59.9279 67.503 59.6393 67.2144C59.3508 66.9259 59.2065 66.5732 59.2065 66.1563C59.2065 65.7394 59.3508 65.3868 59.6393 65.0982C59.9279 64.8096 60.2805 64.6653 60.6975 64.6653C61.0982 64.6653 61.4348 64.8096 61.7075 65.0982C61.9961 65.3868 62.1403 65.7394 62.1403 66.1563C62.1403 66.5732 61.9961 66.9259 61.7075 67.2144C61.4348 67.503 61.0982 67.6473 60.6975 67.6473ZM61.7556 69.7876V82.9659H59.5672V69.7876H61.7556ZM81.3331 69.5471C82.3591 69.5471 83.2729 69.7635 84.0746 70.1964C84.876 70.6133 85.5094 71.2464 85.9744 72.0962C86.4391 72.946 86.6718 73.9801 86.6718 75.1984V82.9659H84.5075V75.511C84.5075 74.1965 84.1786 73.1943 83.5215 72.505C82.88 71.7995 82.0065 71.4469 80.9003 71.4469C79.7619 71.4469 78.8562 71.8157 78.1828 72.5531C77.5095 73.2746 77.1728 74.3245 77.1728 75.7034V82.9659H75.0085V75.511C75.0085 74.1965 74.6796 73.1943 74.0225 72.505C73.381 71.7995 72.5075 71.4469 71.4013 71.4469C70.2629 71.4469 69.3572 71.8157 68.6838 72.5531C68.0105 73.2746 67.6738 74.3245 67.6738 75.7034V82.9659H65.4854V69.7876H67.6738V71.6874C68.1067 70.9981 68.6838 70.469 69.4053 70.1002C70.1426 69.7314 70.9522 69.5471 71.8341 69.5471C72.9403 69.5471 73.9182 69.7957 74.768 70.2926C75.6175 70.7895 76.2509 71.519 76.6678 72.481C77.0363 71.5512 77.6456 70.8298 78.4954 70.3166C79.3449 69.8035 80.2909 69.5471 81.3331 69.5471ZM92.4497 72.2164C92.8825 71.4628 93.524 70.8376 94.3735 70.3407C95.2392 69.8276 96.2414 69.5711 97.3795 69.5711C98.5501 69.5711 99.6082 69.8516 100.554 70.4128C101.516 70.9741 102.269 71.7676 102.814 72.7936C103.36 73.8036 103.632 74.982 103.632 76.3287C103.632 77.6594 103.36 78.8456 102.814 79.8878C102.269 80.93 101.516 81.7395 100.554 82.3166C99.6082 82.8938 98.5501 83.1824 97.3795 83.1824C96.2574 83.1824 95.2633 82.9338 94.3975 82.4369C93.548 81.9237 92.8988 81.2907 92.4497 80.5371V89.2184H90.2613V69.7876H92.4497V72.2164ZM101.396 76.3287C101.396 75.3346 101.195 74.4688 100.794 73.7315C100.394 72.9941 99.8486 72.4329 99.1591 72.0481C98.4857 71.6633 97.7402 71.4709 96.9226 71.4709C96.1212 71.4709 95.3757 71.6714 94.6861 72.0721C94.0128 72.4569 93.4678 73.026 93.0509 73.7796C92.6502 74.5169 92.4497 75.3749 92.4497 76.3527C92.4497 77.3468 92.6502 78.2203 93.0509 78.974C93.4678 79.7113 94.0128 80.2807 94.6861 80.6814C95.3757 81.0661 96.1212 81.2585 96.9226 81.2585C97.7402 81.2585 98.4857 81.0661 99.1591 80.6814C99.8486 80.2807 100.394 79.7113 100.794 78.974C101.195 78.2203 101.396 77.3387 101.396 76.3287ZM118.537 75.8717C118.537 76.2887 118.513 76.7294 118.465 77.1944H107.932C108.012 78.493 108.452 79.5111 109.254 80.2485C110.072 80.9699 111.058 81.3307 112.212 81.3307C113.158 81.3307 113.944 81.1142 114.569 80.6814C115.21 80.2326 115.659 79.6392 115.915 78.9018H118.272C117.92 80.1682 117.214 81.2023 116.156 82.004C115.098 82.7895 113.783 83.1824 112.212 83.1824C110.962 83.1824 109.839 82.9019 108.845 82.3407C107.867 81.7795 107.098 80.9859 106.537 79.9599C105.975 78.9177 105.695 77.7153 105.695 76.3527C105.695 74.9901 105.968 73.7955 106.513 72.7695C107.058 71.7436 107.819 70.9578 108.797 70.4128C109.791 69.8516 110.929 69.5711 112.212 69.5711C113.463 69.5711 114.569 69.8438 115.531 70.3888C116.493 70.9338 117.23 71.6874 117.743 72.6493C118.272 73.5953 118.537 74.6693 118.537 75.8717ZM116.276 75.4148C116.276 74.5813 116.092 73.8676 115.723 73.2745C115.354 72.6652 114.849 72.2083 114.208 71.9038C113.583 71.5831 112.885 71.4228 112.116 71.4228C111.01 71.4228 110.064 71.7755 109.278 72.481C108.509 73.1865 108.068 74.1643 107.956 75.4148H116.276ZM123.614 71.9279C123.998 71.1742 124.544 70.5893 125.249 70.1723C125.97 69.7554 126.844 69.5471 127.87 69.5471V71.8076H127.293C124.84 71.8076 123.614 73.1384 123.614 75.7996V82.9659H121.425V69.7876H123.614V71.9279ZM131.527 67.6473C131.11 67.6473 130.757 67.503 130.468 67.2144C130.18 66.9259 130.036 66.5732 130.036 66.1563C130.036 65.7394 130.18 65.3868 130.468 65.0982C130.757 64.8096 131.11 64.6653 131.527 64.6653C131.927 64.6653 132.264 64.8096 132.537 65.0982C132.825 65.3868 132.969 65.7394 132.969 66.1563C132.969 66.5732 132.825 66.9259 132.537 67.2144C132.264 67.503 131.927 67.6473 131.527 67.6473ZM132.585 69.7876V82.9659H130.396V69.7876H132.585ZM142.062 83.1824C140.827 83.1824 139.705 82.9019 138.695 82.3407C137.701 81.7795 136.916 80.9859 136.339 79.9599C135.777 78.9177 135.497 77.7153 135.497 76.3527C135.497 75.006 135.786 73.8195 136.363 72.7936C136.956 71.7514 137.757 70.9578 138.767 70.4128C139.777 69.8516 140.908 69.5711 142.158 69.5711C143.409 69.5711 144.539 69.8516 145.549 70.4128C146.559 70.9578 147.353 71.7436 147.93 72.7695C148.523 73.7955 148.82 74.9901 148.82 76.3527C148.82 77.7153 148.515 78.9177 147.906 79.9599C147.312 80.9859 146.503 81.7795 145.477 82.3407C144.451 82.9019 143.313 83.1824 142.062 83.1824ZM142.062 81.2585C142.848 81.2585 143.585 81.0743 144.274 80.7054C144.964 80.3366 145.517 79.7835 145.934 79.0461C146.367 78.3087 146.583 77.4108 146.583 76.3527C146.583 75.2946 146.375 74.3967 145.958 73.6593C145.541 72.9219 144.996 72.3767 144.323 72.0241C143.649 71.6552 142.92 71.4709 142.134 71.4709C141.333 71.4709 140.595 71.6552 139.922 72.0241C139.264 72.3767 138.735 72.9219 138.335 73.6593C137.934 74.3967 137.733 75.2946 137.733 76.3527C137.733 77.4268 137.926 78.3328 138.311 79.0701C138.711 79.8075 139.24 80.3606 139.898 80.7295C140.555 81.0821 141.276 81.2585 142.062 81.2585Z" fill="white"/>
</svg>
